<?xml version="1.0" encoding="UTF-8" standalone="no"?>
<svg width="42px" height="24px" viewBox="0 0 42 24" version="1.1" xmlns="http://www.w3.org/2000/svg" xmlns:xlink="http://www.w3.org/1999/xlink" xmlns:sketch="http://www.bohemiancoding.com/sketch/ns">
    <!-- Generator: Sketch 3.2.1 (9977) - http://www.bohemiancoding.com/sketch -->
    <g id="Page-1" stroke="none" stroke-width="1" fill="none" fill-rule="evenodd" sketch:type="MSPage">
        <g id="mac-outline" sketch:type="MSLayerGroup" fill="#fff">
            <path d="M37.213,21.64 L37.213,20.239 L37.213,1.349 C37.213,0.755 36.734,0.274 36.143,0.274 L5.906,0.274 C5.315,0.274 4.836,0.755 4.836,1.349 L4.836,20.238 L4.836,20.239 L4.836,21.639 L0.11,21.639 L0.11,23.045 C0.11,23.42 0.415,23.725 0.79,23.725 L41.274,23.725 C41.649,23.725 41.953,23.42 41.953,23.045 L41.953,21.64 L37.213,21.64 L37.213,21.64 Z M35.918,20.365 L6.067,20.365 L6.067,1.601 L35.918,1.601 L35.918,20.365 L35.918,20.365 Z" id="Shape" sketch:type="MSShapeGroup"></path>
        </g>
    </g>
</svg>